<?xml version="1.0" encoding="utf-8"?>
<!-- Generator: Adobe Illustrator 21.0.2, SVG Export Plug-In . SVG Version: 6.00 Build 0)  -->
<svg version="1.1" id="Layer_1" xmlns="http://www.w3.org/2000/svg" xmlns:xlink="http://www.w3.org/1999/xlink" x="0px" y="0px"
	 viewBox="0 0 25 25" style="enable-background:new 0 0 25 25;" xml:space="preserve">
<style type="text/css">
	.st0{fill:#F15B23;}
	.st1{fill:#2C97DD;}
	.st2{fill:#02BC9B;}
	.st3{fill:#EFCD06;}
</style>
<g>
	<g>
		<polygon class="st0" points="7.8,12 7.8,4.9 4.1,0 4.1,7.1 		"/>
	</g>
	<path class="st1" d="M21.3,16.2L21.3,16.2c0-1.5-0.3-2.8-0.7-3.9c-0.5-1.1-1.1-2.1-1.9-2.8c-0.8-0.7-1.6-1.3-2.5-1.7
		c-0.9-0.4-1.8-0.6-2.6-0.6c-2.3,0-3.9,0.4-5,1.1l0,0.1v3.8L8.9,12c1.4-0.9,2.8-1.4,4.5-1.4c1.2,0.1,2.3,0.7,3.1,1.6
		s1.2,2.1,1.2,3.6c0,0.3-0.1,0.5-0.1,0.7v0c0,0,0.2-0.2,0.2-0.2L21.3,16.2C21.2,16.2,21.3,16.3,21.3,16.2z"/>
	<path class="st2" d="M12.9,21.1c-1,0-2-0.3-2.7-0.8c-0.7-0.5-1.4-1.3-1.7-2.2c-0.2-0.5-0.4-1.1-0.5-1.6c-0.1-0.5-0.1-1-0.1-1.6
		v-1.7L4.1,8.4v7.8c0,0.1,0.1,0.2,0.1,0.4c0.1,1,0.4,2,0.9,3.2c0.6,1.3,1.7,2.4,3,3.4c1.3,0.9,2.7,1.4,5,1.4v-3.4
		C13.1,21.1,12.9,21.1,12.9,21.1z"/>
	<path class="st3" d="M12.9,24.4L12.9,24.4c1.5,0,2.7-0.3,3.8-0.8c1.1-0.5,1.9-1.2,2.6-2.1c0.6-0.8,1.1-1.9,1.4-2.8
		c0.3-0.8,0.5-1.8,0.5-2.5h-3.5c-0.1,1.5-0.4,2.2-1,2.9c-0.6,0.7-1.1,1.3-1.8,1.6c-0.7,0.3-1.9,0.5-1.9,0.5v3.4
		C13.1,24.5,12.8,24.4,12.9,24.4C12.9,24.4,12.9,24.4,12.9,24.4z"/>
</g>
</svg>
